<mxfile host="app.diagrams.net" modified="2021-09-22T10:25:17.520Z" agent="5.0 (Windows)" etag="eBQ55uh0me46EwUzrnYF" version="15.2.9" type="github">
  <diagram id="3zV3grbTLbIIIl_E3F7j" name="Page-1">
    <mxGraphModel dx="1422" dy="773" grid="1" gridSize="10" guides="1" tooltips="1" connect="1" arrows="1" fold="1" page="1" pageScale="1" pageWidth="827" pageHeight="1169" math="0" shadow="0">
      <root>
        <mxCell id="0" />
        <mxCell id="1" parent="0" />
        <mxCell id="56IU1cRiJv5hOyN3SNsQ-1" value="" style="whiteSpace=wrap;html=1;aspect=fixed;fillColor=#dae8fc;strokeColor=#6c8ebf;" vertex="1" parent="1">
          <mxGeometry x="170" y="125" width="510" height="510" as="geometry" />
        </mxCell>
        <mxCell id="56IU1cRiJv5hOyN3SNsQ-2" value="Expédition commande" style="ellipse;whiteSpace=wrap;html=1;fillColor=#e1d5e7;strokeColor=#9673a6;" vertex="1" parent="1">
          <mxGeometry x="500" y="450" width="130" height="50" as="geometry" />
        </mxCell>
        <mxCell id="56IU1cRiJv5hOyN3SNsQ-3" value="&lt;span class=&quot;fontstyle0&quot;&gt;Expédition complète&lt;/span&gt; &lt;br/&gt;" style="ellipse;whiteSpace=wrap;html=1;fillColor=#e1d5e7;strokeColor=#9673a6;" vertex="1" parent="1">
          <mxGeometry x="404" y="220" width="176" height="50" as="geometry" />
        </mxCell>
        <mxCell id="56IU1cRiJv5hOyN3SNsQ-4" value="&#xa;&#xa;&#xa;&lt;span class=&quot;fontstyle0&quot;&gt;Passer commande, &lt;/span&gt; &#xa;&lt;br style=&quot;font-style: normal; font-variant: normal; font-weight: normal; letter-spacing: normal; line-height: normal; text-indent: 0px; text-transform: none; word-spacing: 0px;&quot;&gt;&#xa;&#xa;&#xa;" style="ellipse;whiteSpace=wrap;html=1;fillColor=#e1d5e7;strokeColor=#9673a6;" vertex="1" parent="1">
          <mxGeometry x="250" y="440" width="150" height="50" as="geometry" />
        </mxCell>
        <mxCell id="56IU1cRiJv5hOyN3SNsQ-5" value="&lt;span class=&quot;fontstyle0&quot;&gt;Expédition partielle&lt;/span&gt; " style="ellipse;whiteSpace=wrap;html=1;fillColor=#e1d5e7;strokeColor=#9673a6;" vertex="1" parent="1">
          <mxGeometry x="400" y="380" width="140" height="50" as="geometry" />
        </mxCell>
        <mxCell id="56IU1cRiJv5hOyN3SNsQ-8" value="&lt;br&gt;&lt;br&gt;&lt;br&gt;&lt;span class=&quot;fontstyle0&quot;&gt;Passe une commande urgente &lt;/span&gt; &lt;br&gt;&lt;br style=&quot;font-style: normal ; font-variant: normal ; font-weight: normal ; letter-spacing: normal ; line-height: normal ; text-indent: 0px ; text-transform: none ; word-spacing: 0px&quot;&gt;&lt;br&gt;&lt;br&gt;" style="ellipse;whiteSpace=wrap;html=1;fillColor=#e1d5e7;strokeColor=#9673a6;" vertex="1" parent="1">
          <mxGeometry x="250" y="550" width="160" height="60" as="geometry" />
        </mxCell>
        <mxCell id="56IU1cRiJv5hOyN3SNsQ-9" value="&lt;span class=&quot;fontstyle0&quot; style=&quot;font-size: 14px&quot;&gt;Identification utilisateur&lt;br&gt;&lt;/span&gt; &lt;br&gt;" style="ellipse;whiteSpace=wrap;html=1;fillColor=#e1d5e7;strokeColor=#9673a6;" vertex="1" parent="1">
          <mxGeometry x="200" y="270" width="160" height="60" as="geometry" />
        </mxCell>
        <mxCell id="56IU1cRiJv5hOyN3SNsQ-11" value="Client" style="shape=umlActor;verticalLabelPosition=bottom;verticalAlign=top;html=1;outlineConnect=0;fillColor=#f8cecc;strokeColor=#b85450;" vertex="1" parent="1">
          <mxGeometry x="80" y="210" width="60" height="90" as="geometry" />
        </mxCell>
        <mxCell id="56IU1cRiJv5hOyN3SNsQ-14" value="" style="endArrow=none;html=1;" edge="1" parent="1" target="56IU1cRiJv5hOyN3SNsQ-4">
          <mxGeometry width="50" height="50" relative="1" as="geometry">
            <mxPoint x="110" y="260" as="sourcePoint" />
            <mxPoint x="160" y="210" as="targetPoint" />
          </mxGeometry>
        </mxCell>
        <mxCell id="56IU1cRiJv5hOyN3SNsQ-18" value="" style="endArrow=none;html=1;" edge="1" parent="1" target="56IU1cRiJv5hOyN3SNsQ-3">
          <mxGeometry width="50" height="50" relative="1" as="geometry">
            <mxPoint x="680" y="271" as="sourcePoint" />
            <mxPoint x="1050" y="100" as="targetPoint" />
          </mxGeometry>
        </mxCell>
        <mxCell id="56IU1cRiJv5hOyN3SNsQ-19" value="" style="endArrow=classic;html=1;entryX=0.784;entryY=1;entryDx=0;entryDy=0;exitX=0.5;exitY=0;exitDx=0;exitDy=0;entryPerimeter=0;" edge="1" parent="1" source="56IU1cRiJv5hOyN3SNsQ-2" target="56IU1cRiJv5hOyN3SNsQ-3">
          <mxGeometry width="50" height="50" relative="1" as="geometry">
            <mxPoint x="490" y="190" as="sourcePoint" />
            <mxPoint x="540" y="140" as="targetPoint" />
          </mxGeometry>
        </mxCell>
        <mxCell id="56IU1cRiJv5hOyN3SNsQ-20" value="" style="endArrow=classic;html=1;exitX=0.324;exitY=0.08;exitDx=0;exitDy=0;exitPerimeter=0;" edge="1" parent="1" source="56IU1cRiJv5hOyN3SNsQ-5" target="56IU1cRiJv5hOyN3SNsQ-3">
          <mxGeometry width="50" height="50" relative="1" as="geometry">
            <mxPoint x="480" y="280" as="sourcePoint" />
            <mxPoint x="530" y="230" as="targetPoint" />
            <Array as="points" />
          </mxGeometry>
        </mxCell>
        <mxCell id="56IU1cRiJv5hOyN3SNsQ-23" value="Include" style="endArrow=block;endSize=16;endFill=0;html=1;" edge="1" parent="1" source="56IU1cRiJv5hOyN3SNsQ-4">
          <mxGeometry width="160" relative="1" as="geometry">
            <mxPoint x="220" y="430" as="sourcePoint" />
            <mxPoint x="290" y="330" as="targetPoint" />
            <Array as="points" />
          </mxGeometry>
        </mxCell>
        <mxCell id="56IU1cRiJv5hOyN3SNsQ-24" value="" style="endArrow=classic;html=1;entryX=0.4;entryY=1.02;entryDx=0;entryDy=0;entryPerimeter=0;" edge="1" parent="1" target="56IU1cRiJv5hOyN3SNsQ-4">
          <mxGeometry width="50" height="50" relative="1" as="geometry">
            <mxPoint x="300" y="550" as="sourcePoint" />
            <mxPoint x="350" y="500" as="targetPoint" />
          </mxGeometry>
        </mxCell>
        <mxCell id="56IU1cRiJv5hOyN3SNsQ-25" value="service livraison" style="rounded=1;whiteSpace=wrap;html=1;fillColor=#f8cecc;strokeColor=#b85450;" vertex="1" parent="1">
          <mxGeometry x="690" y="270" width="120" height="60" as="geometry" />
        </mxCell>
        <mxCell id="56IU1cRiJv5hOyN3SNsQ-28" value="" style="whiteSpace=wrap;html=1;aspect=fixed;gradientColor=#7ea6e0;fillColor=#dae8fc;strokeColor=#6c8ebf;" vertex="1" parent="1">
          <mxGeometry x="170" y="730" width="590" height="590" as="geometry" />
        </mxCell>
        <mxCell id="56IU1cRiJv5hOyN3SNsQ-29" value="Caissier" style="shape=umlActor;verticalLabelPosition=bottom;verticalAlign=top;html=1;outlineConnect=0;gradientColor=#ea6b66;fillColor=#f8cecc;strokeColor=#b85450;" vertex="1" parent="1">
          <mxGeometry x="30" y="915" width="60" height="90" as="geometry" />
        </mxCell>
        <mxCell id="56IU1cRiJv5hOyN3SNsQ-30" value="Enregistrer numéro d&#39;article" style="ellipse;whiteSpace=wrap;html=1;" vertex="1" parent="1">
          <mxGeometry x="343.5" y="780" width="140" height="60" as="geometry" />
        </mxCell>
        <mxCell id="56IU1cRiJv5hOyN3SNsQ-31" value="Carte crédit" style="ellipse;whiteSpace=wrap;html=1;" vertex="1" parent="1">
          <mxGeometry x="320" y="1140" width="120" height="50" as="geometry" />
        </mxCell>
        <mxCell id="56IU1cRiJv5hOyN3SNsQ-32" value="Espéces" style="ellipse;whiteSpace=wrap;html=1;" vertex="1" parent="1">
          <mxGeometry x="180" y="1140" width="120" height="50" as="geometry" />
        </mxCell>
        <mxCell id="56IU1cRiJv5hOyN3SNsQ-33" value="Encaisse argent" style="ellipse;whiteSpace=wrap;html=1;" vertex="1" parent="1">
          <mxGeometry x="170" y="1250" width="120" height="50" as="geometry" />
        </mxCell>
        <mxCell id="56IU1cRiJv5hOyN3SNsQ-34" value="Afficher prix et libellé" style="ellipse;whiteSpace=wrap;html=1;" vertex="1" parent="1">
          <mxGeometry x="330" y="850" width="120" height="50" as="geometry" />
        </mxCell>
        <mxCell id="56IU1cRiJv5hOyN3SNsQ-35" value="Signaler fin vente" style="ellipse;whiteSpace=wrap;html=1;" vertex="1" parent="1">
          <mxGeometry x="330" y="920" width="120" height="50" as="geometry" />
        </mxCell>
        <mxCell id="56IU1cRiJv5hOyN3SNsQ-36" value="Paiments" style="ellipse;whiteSpace=wrap;html=1;" vertex="1" parent="1">
          <mxGeometry x="320" y="1030" width="120" height="50" as="geometry" />
        </mxCell>
        <mxCell id="56IU1cRiJv5hOyN3SNsQ-37" value="" style="endArrow=none;html=1;entryX=0;entryY=0.5;entryDx=0;entryDy=0;" edge="1" parent="1" target="56IU1cRiJv5hOyN3SNsQ-30">
          <mxGeometry width="50" height="50" relative="1" as="geometry">
            <mxPoint x="80" y="930" as="sourcePoint" />
            <mxPoint x="150" y="780" as="targetPoint" />
          </mxGeometry>
        </mxCell>
        <mxCell id="56IU1cRiJv5hOyN3SNsQ-38" value="" style="endArrow=none;html=1;entryX=0;entryY=0.36;entryDx=0;entryDy=0;entryPerimeter=0;" edge="1" parent="1" source="56IU1cRiJv5hOyN3SNsQ-29" target="56IU1cRiJv5hOyN3SNsQ-34">
          <mxGeometry width="50" height="50" relative="1" as="geometry">
            <mxPoint x="110" y="860" as="sourcePoint" />
            <mxPoint x="160" y="810" as="targetPoint" />
          </mxGeometry>
        </mxCell>
        <mxCell id="56IU1cRiJv5hOyN3SNsQ-39" value="" style="endArrow=none;html=1;" edge="1" parent="1" source="56IU1cRiJv5hOyN3SNsQ-29">
          <mxGeometry width="50" height="50" relative="1" as="geometry">
            <mxPoint x="115" y="870" as="sourcePoint" />
            <mxPoint x="340" y="940" as="targetPoint" />
          </mxGeometry>
        </mxCell>
        <mxCell id="56IU1cRiJv5hOyN3SNsQ-40" value="" style="endArrow=block;dashed=1;endFill=0;endSize=12;html=1;entryX=0.592;entryY=0;entryDx=0;entryDy=0;entryPerimeter=0;" edge="1" parent="1" source="56IU1cRiJv5hOyN3SNsQ-35" target="56IU1cRiJv5hOyN3SNsQ-36">
          <mxGeometry width="160" relative="1" as="geometry">
            <mxPoint x="370" y="1010" as="sourcePoint" />
            <mxPoint x="530" y="1010" as="targetPoint" />
          </mxGeometry>
        </mxCell>
        <mxCell id="56IU1cRiJv5hOyN3SNsQ-41" value="Include" style="edgeLabel;html=1;align=center;verticalAlign=middle;resizable=0;points=[];" vertex="1" connectable="0" parent="56IU1cRiJv5hOyN3SNsQ-40">
          <mxGeometry x="-0.4293" y="-2" relative="1" as="geometry">
            <mxPoint as="offset" />
          </mxGeometry>
        </mxCell>
        <mxCell id="56IU1cRiJv5hOyN3SNsQ-42" value="Chéques" style="ellipse;whiteSpace=wrap;html=1;" vertex="1" parent="1">
          <mxGeometry x="460" y="1140" width="120" height="50" as="geometry" />
        </mxCell>
        <mxCell id="56IU1cRiJv5hOyN3SNsQ-43" value="" style="endArrow=classic;html=1;entryX=0;entryY=1;entryDx=0;entryDy=0;" edge="1" parent="1" target="56IU1cRiJv5hOyN3SNsQ-36">
          <mxGeometry width="50" height="50" relative="1" as="geometry">
            <mxPoint x="255" y="1140" as="sourcePoint" />
            <mxPoint x="305" y="1090" as="targetPoint" />
          </mxGeometry>
        </mxCell>
        <mxCell id="56IU1cRiJv5hOyN3SNsQ-44" value="" style="endArrow=classic;html=1;" edge="1" parent="1">
          <mxGeometry width="50" height="50" relative="1" as="geometry">
            <mxPoint x="385" y="1140" as="sourcePoint" />
            <mxPoint x="385" y="1070" as="targetPoint" />
          </mxGeometry>
        </mxCell>
        <mxCell id="56IU1cRiJv5hOyN3SNsQ-45" value="" style="endArrow=classic;html=1;entryX=1;entryY=1;entryDx=0;entryDy=0;" edge="1" parent="1" target="56IU1cRiJv5hOyN3SNsQ-36">
          <mxGeometry width="50" height="50" relative="1" as="geometry">
            <mxPoint x="505" y="1140" as="sourcePoint" />
            <mxPoint x="555" y="1090" as="targetPoint" />
          </mxGeometry>
        </mxCell>
        <mxCell id="56IU1cRiJv5hOyN3SNsQ-47" style="edgeStyle=orthogonalEdgeStyle;rounded=0;orthogonalLoop=1;jettySize=auto;html=1;exitX=0.5;exitY=1;exitDx=0;exitDy=0;" edge="1" parent="1" source="56IU1cRiJv5hOyN3SNsQ-33" target="56IU1cRiJv5hOyN3SNsQ-33">
          <mxGeometry relative="1" as="geometry" />
        </mxCell>
        <mxCell id="56IU1cRiJv5hOyN3SNsQ-49" value="" style="endArrow=block;dashed=1;endFill=0;endSize=12;html=1;exitX=0.5;exitY=0;exitDx=0;exitDy=0;" edge="1" parent="1">
          <mxGeometry width="160" relative="1" as="geometry">
            <mxPoint x="226.47" y="1250" as="sourcePoint" />
            <mxPoint x="233.5323508825122" y="1189.9700174986465" as="targetPoint" />
          </mxGeometry>
        </mxCell>
        <mxCell id="56IU1cRiJv5hOyN3SNsQ-50" value="Include" style="edgeLabel;html=1;align=center;verticalAlign=middle;resizable=0;points=[];" vertex="1" connectable="0" parent="56IU1cRiJv5hOyN3SNsQ-49">
          <mxGeometry x="-0.4293" y="-2" relative="1" as="geometry">
            <mxPoint as="offset" />
          </mxGeometry>
        </mxCell>
        <mxCell id="56IU1cRiJv5hOyN3SNsQ-51" value="" style="endArrow=none;html=1;exitX=0;exitY=0;exitDx=0;exitDy=0;" edge="1" parent="1" source="56IU1cRiJv5hOyN3SNsQ-33" target="56IU1cRiJv5hOyN3SNsQ-29">
          <mxGeometry width="50" height="50" relative="1" as="geometry">
            <mxPoint x="390" y="1060" as="sourcePoint" />
            <mxPoint x="80" y="880" as="targetPoint" />
          </mxGeometry>
        </mxCell>
        <mxCell id="56IU1cRiJv5hOyN3SNsQ-52" value="Gestion de stocks" style="rounded=0;whiteSpace=wrap;html=1;gradientColor=#ea6b66;fillColor=#f8cecc;strokeColor=#b85450;" vertex="1" parent="1">
          <mxGeometry x="780" y="915" width="120" height="60" as="geometry" />
        </mxCell>
        <mxCell id="56IU1cRiJv5hOyN3SNsQ-53" value="Transmettre informations" style="ellipse;whiteSpace=wrap;html=1;" vertex="1" parent="1">
          <mxGeometry x="550" y="1015" width="120" height="55" as="geometry" />
        </mxCell>
        <mxCell id="56IU1cRiJv5hOyN3SNsQ-55" value="" style="endArrow=block;dashed=1;endFill=0;endSize=12;html=1;exitX=1;exitY=0.5;exitDx=0;exitDy=0;" edge="1" parent="1" source="56IU1cRiJv5hOyN3SNsQ-36">
          <mxGeometry width="160" relative="1" as="geometry">
            <mxPoint x="550" y="1050.03" as="sourcePoint" />
            <mxPoint x="557" y="1040" as="targetPoint" />
          </mxGeometry>
        </mxCell>
        <mxCell id="56IU1cRiJv5hOyN3SNsQ-56" value="Include" style="edgeLabel;html=1;align=center;verticalAlign=middle;resizable=0;points=[];" vertex="1" connectable="0" parent="56IU1cRiJv5hOyN3SNsQ-55">
          <mxGeometry x="-0.4293" y="-2" relative="1" as="geometry">
            <mxPoint as="offset" />
          </mxGeometry>
        </mxCell>
        <mxCell id="56IU1cRiJv5hOyN3SNsQ-57" value="Responsable" style="shape=umlActor;verticalLabelPosition=bottom;verticalAlign=top;html=1;outlineConnect=0;gradientColor=#ea6b66;fillColor=#f8cecc;strokeColor=#b85450;" vertex="1" parent="1">
          <mxGeometry x="800" y="760" width="60" height="90" as="geometry" />
        </mxCell>
        <mxCell id="56IU1cRiJv5hOyN3SNsQ-58" value="Initialise des caisse" style="ellipse;whiteSpace=wrap;html=1;" vertex="1" parent="1">
          <mxGeometry x="580" y="790" width="120" height="50" as="geometry" />
        </mxCell>
        <mxCell id="56IU1cRiJv5hOyN3SNsQ-60" value="" style="endArrow=none;html=1;" edge="1" parent="1" source="56IU1cRiJv5hOyN3SNsQ-58">
          <mxGeometry width="50" height="50" relative="1" as="geometry">
            <mxPoint x="760" y="830" as="sourcePoint" />
            <mxPoint x="810" y="780" as="targetPoint" />
            <Array as="points">
              <mxPoint x="800" y="790" />
            </Array>
          </mxGeometry>
        </mxCell>
        <mxCell id="56IU1cRiJv5hOyN3SNsQ-61" value="Coupons de réductions" style="ellipse;whiteSpace=wrap;html=1;" vertex="1" parent="1">
          <mxGeometry x="550" y="880" width="120" height="80" as="geometry" />
        </mxCell>
        <mxCell id="56IU1cRiJv5hOyN3SNsQ-62" value="" style="endArrow=none;html=1;entryX=1;entryY=0.5;entryDx=0;entryDy=0;" edge="1" parent="1" target="56IU1cRiJv5hOyN3SNsQ-61">
          <mxGeometry width="50" height="50" relative="1" as="geometry">
            <mxPoint x="777" y="945" as="sourcePoint" />
            <mxPoint x="827" y="895" as="targetPoint" />
          </mxGeometry>
        </mxCell>
        <mxCell id="56IU1cRiJv5hOyN3SNsQ-63" value="Extends" style="endArrow=block;endSize=16;endFill=0;html=1;entryX=0.983;entryY=0.38;entryDx=0;entryDy=0;entryPerimeter=0;" edge="1" parent="1" target="56IU1cRiJv5hOyN3SNsQ-35">
          <mxGeometry width="160" relative="1" as="geometry">
            <mxPoint x="550" y="930" as="sourcePoint" />
            <mxPoint x="710" y="930" as="targetPoint" />
          </mxGeometry>
        </mxCell>
        <mxCell id="56IU1cRiJv5hOyN3SNsQ-64" value="Client" style="shape=umlActor;verticalLabelPosition=bottom;verticalAlign=top;html=1;outlineConnect=0;gradientColor=#ea6b66;fillColor=#f8cecc;strokeColor=#b85450;" vertex="1" parent="1">
          <mxGeometry x="40" y="730" width="50" height="90" as="geometry" />
        </mxCell>
        <mxCell id="56IU1cRiJv5hOyN3SNsQ-65" value="Poser article" style="ellipse;whiteSpace=wrap;html=1;" vertex="1" parent="1">
          <mxGeometry x="200" y="750" width="120" height="60" as="geometry" />
        </mxCell>
        <mxCell id="56IU1cRiJv5hOyN3SNsQ-67" value="" style="endArrow=none;html=1;entryX=0;entryY=0.5;entryDx=0;entryDy=0;" edge="1" parent="1" target="56IU1cRiJv5hOyN3SNsQ-65">
          <mxGeometry width="50" height="50" relative="1" as="geometry">
            <mxPoint x="70" y="780" as="sourcePoint" />
            <mxPoint x="120" y="730" as="targetPoint" />
          </mxGeometry>
        </mxCell>
      </root>
    </mxGraphModel>
  </diagram>
</mxfile>
